<?xml version="1.0" encoding="UTF-8"?>
<svg id="Layer_2" xmlns="http://www.w3.org/2000/svg" version="1.1" viewBox="0 0 388.34 312.01">
  <!-- Generator: Adobe Illustrator 30.0.0, SVG Export Plug-In . SVG Version: 2.1.1 Build 123)  -->
  <defs>
    <style>
      .st0 {
        fill: #0f0f0f;
      }
    </style>
  </defs>
  <g id="Layer_1-2">
    <g>
      <path class="st0" d="M14.48,195.97h.09c30.02-.46,54.59,13.33,79.62,44.68,1.15,1.44,2.83,2.18,4.54,2.18,1.27,0,2.55-.42,3.62-1.27,2.5-2,2.91-5.65.91-8.15-27.12-33.97-55.33-49.57-88.87-49.05-3.2.05-5.76,2.68-5.71,5.89.05,3.17,2.64,5.71,5.8,5.71h0Z"/>
      <path class="st0" d="M277.38,253.29c-2.57-1.91-6.21-1.37-8.12,1.2-22.64,30.49-48.43,46.37-74.6,45.9-26.12-.46-52.24-16.9-71.68-45.1-1.82-2.64-5.43-3.3-8.07-1.48s-3.3,5.43-1.48,8.07c21.59,31.32,51.13,49.59,81.03,50.12.45,0,.9.01,1.35.01,37.31,0,65.57-27.43,82.77-50.59,1.91-2.57,1.37-6.21-1.2-8.12h0Z"/>
      <path class="st0" d="M377.1,185.34c-39.68-.73-63.97,18.53-88.34,47.7-2.05,2.46-1.73,6.12.73,8.17,1.09.91,2.41,1.35,3.72,1.35,1.66,0,3.31-.71,4.46-2.08,22.23-26.6,44.23-44.2,79.22-43.53h.11c3.15,0,5.74-2.53,5.8-5.69.06-3.2-2.49-5.85-5.69-5.91h0Z"/>
      <path class="st0" d="M44.05,167.64c3.58,0,7.02-.19,10.29-.56,5.71-.68,10.51-1.79,14.38-3.34,4.84-1.89,9.18-4.58,13.05-8.01,4.89-4.26,8.72-9.49,11.5-15.69,1.38-3.1,2.4-6.27,3.1-9.47.68-3.17,1.02-6.44,1.02-9.73,0-6.95-1.7-13.53-5.11-19.73-3.12-5.96-7.51-11.14-13.2-15.52-5.38-3.83-11.31-6.76-17.72-8.74-5.86-1.74-12.42-2.61-19.66-2.61l-9.01.29c-3.03,0-6.15.19-9.42.56-3.27.39-7.14.92-11.65,1.65-3.63.51-6.37,1.16-8.21,1.91-2.13.7-3.27,1.55-3.41,2.54,0,.94.56,1.5,1.65,1.65l3.07-.73,4.24-.92c2.32,0,3.87,1.19,4.58,3.56l.15,1.62v71.25c0,1.24-.17,2.25-.53,3.1-.36.82-.87,1.48-1.55,1.94-.7.48-1.65.85-2.88,1.11-1.24.27-2.71.39-4.48.39h-1.19c-1.72,0-2.57.53-2.57,1.57,0,1.14.8,1.79,2.42,1.91h41.14ZM25.19,88.66v-4.55c0-.9.12-1.69.39-2.37.27-.7.6-1.26,1.04-1.67.7-.73,2.69-1.4,5.96-2.06,2.71-.29,4.89-.44,6.54-.44,6.61,0,12.66,1.06,18.21,3.2,8.16,3.07,14.67,8.21,19.56,15.42,2.23,3.51,4.02,7.48,5.4,11.94.61,2.18,1.07,4.46,1.38,6.8.31,2.37.46,4.82.46,7.34,0,5.62-1.02,11.23-3.08,16.83-2.06,5.59-5.06,10.39-8.98,14.43-4.12,4.26-8.89,7.31-14.33,9.15-2.4.85-5.11,1.5-8.13,1.91-3.08.29-6.03.44-8.89.44-6.17,0-10.31-1.09-12.4-3.24-2.08-2.16-3.12-6.39-3.12-12.74v-60.38h-.01Z"/>
      <path class="st0" d="M130.92,151.51v5.83c0,1.14-.17,2.11-.53,2.95-.36.82-.87,1.48-1.53,1.94-.65.48-1.65.85-2.95,1.11-1.28.27-2.76.39-4.43.39-1.23,0-2.06.1-2.47.29-.9.27-1.36.75-1.36,1.4,0,1.48.82,2.2,2.49,2.2l9.01-.56h56.8c.8-.1,1.36-.41,1.65-.92l2.13-15.4.19-.92.15-1.28.22-1.28c0-.9-.48-1.4-1.43-1.55-.51,0-1.19.65-2.06,1.99l-1.11,2.91c-2.18,5.88-5.47,9.66-9.85,11.36-1.72.63-4.04,1.11-7.02,1.5h-4.26l-4.26.27-7.72-.27c-3.46-.34-5.98-1.36-7.6-3.05-1.69-2.08-2.54-5.5-2.54-10.22v-25.25c0-2.37.48-3.83,1.43-4.41.36-.12,1.06-.27,2.11-.39,1.04-.12,2.28-.17,3.71-.17h8.28c1.82,0,3.41.1,4.82.32,1.43.22,2.88.48,4.33.82,1.48.34,2.66,1.45,3.61,3.39.53,1.19,1.04,3.17,1.57,5.98,0,.07.1.39.29.92.05.15.12.34.19.63.34.6.82.92,1.43.92,1.09,0,1.62-.87,1.62-2.62-.1-2.52-.15-4.89-.19-7.14-.05-2.23-.07-4.41-.07-6.54,0-1.21.05-3.34.12-6.37.1-3.03.15-5.04.15-6s-.53-1.4-1.62-1.4c-.51,0-.99.27-1.43.85l-.48,1.55c-.29,2.13-.77,4.29-1.45,6.44-.68,2.13-1.89,3.37-3.58,3.66-1.84,0-4.72.07-8.64.27-3.92.19-6.9.29-8.93.29-3.17,0-5.11-.29-5.81-.85-.95-.82-1.43-2.83-1.43-6.03v-25.23c.29-1.23.99-2.18,2.13-2.78l5.54-.73h13.61c1.4,0,2.81.12,4.14.39,1.36.27,2.64.61,3.83.99,2.13.7,3.97,1.79,5.54,3.24,1.19,1.09,2.35,2.91,3.49,5.4l2.2,4.19c.15.48.44,1.11.85,1.86.44.58.92.94,1.5,1.09.51,0,.9-.41,1.14-1.21l.15-1.84-.02-12.47.02-3.34c-.15-1.23-.8-1.91-1.99-2.06h-64.4c-1.53,0-2.35.68-2.49,2.06.1.65.56,1.23,1.36,1.7h2.47c4.5,0,7.29.87,8.38,2.64.44.61.77,1.82,1.07,3.61v64.94h-.07Z"/>
      <path class="st0" d="M223.58,76.58h-3.78c-1.67-.24-2.81-.65-3.49-1.21-.41-.34-.82-1.36-1.21-3.07,0-.9-.41-1.4-1.28-1.55-.85,0-1.48.68-1.91,2.06l-5.62,18.86-.63,1.57-.15.92v.99c0,1.19.51,1.79,1.5,1.79.51-.05,1.11-.51,1.84-1.36l.48-.77.85-1.43c3.27-5.35,6.75-8.91,10.43-10.7,1.74-.75,3.92-1.36,6.54-1.77,2.54-.29,5.4-.44,8.57-.44h2.91c1.38,0,2.25.19,2.64.56.29.48.48.99.63,1.5.15.53.22,1.26.22,2.2v73.17c0,1.19-.17,2.18-.53,2.98-.36.8-.85,1.4-1.45,1.77-.61.48-1.55.85-2.83,1.11-1.28.27-2.81.39-4.62.39h-2.32c-.85.15-1.28.65-1.28,1.57,0,1.14.82,1.77,2.49,1.91h32.83c1.53,0,2.35-.58,2.49-1.77-.1-.73-.58-1.31-1.5-1.72h-2.32c-4.55,0-7.36-.82-8.45-2.49-.39-.85-.7-2.11-.99-3.75v-70.33c0-3.54.29-5.67.85-6.39.24-.17.85-.34,1.81-.48.99-.15,2.28-.22,3.9-.22h11.82c1.74,0,3.37.31,4.84.97,1.48.63,2.69,1.55,3.63,2.78.56.75,1.4,2.37,2.49,4.82l.85,2.54.87,2.57c.41,1.23.97,1.89,1.62,1.98,1.14,0,1.72-.8,1.72-2.42l.92-17.72v-3.05c0-1.48-.51-2.2-1.5-2.2-.75,0-1.45.85-2.13,2.59-.65,1.72-1.89,2.81-3.68,3.24h-58.07Z"/>
      <path class="st0" d="M291.02,167.78l3.2-.27h26.73c.68-.24,1.07-.77,1.21-1.65,0-.97-.51-1.57-1.5-1.84h-5.16c-1.89-.24-3.46-.7-4.7-1.36-1.45-.87-2.18-2.13-2.18-3.83,0-1.28.22-2.64.68-4.09l1.31-4.02,4.33-10.85.65-1.45.61-1.57c.36-1.09.94-1.86,1.69-2.32.65-.29,2.08-.44,4.26-.44h19.71c3.12,0,5.11.29,5.98.85.46.34,1.48,2.52,3.05,6.54l4.67,11.06c.51,1.16.92,2.23,1.21,3.15.29.92.46,1.65.53,2.15.07.53.14,1.11.24,1.77,0,1.86-1.07,3.12-3.2,3.85l-1.36.19-1.7.36h-3.05c-1.38,0-2.25.1-2.61.29-.92.29-1.43.9-1.57,1.84,0,.78.78,1.23,2.35,1.36h35.25c1.48,0,2.2-.46,2.2-1.36,0-.97-.51-1.62-1.55-1.98l-1.28-.15h-1.36c-2.98,0-5.54-1.65-7.72-4.96-.44-.8-1.02-2.03-1.77-3.66-.77-1.62-1.57-3.46-2.42-5.5l-29.37-72.93-.7-1.77c-.29-.53-.75-.85-1.36-.99-.65.1-1.24.46-1.7,1.14l-.73,2.06-28.09,72.78-2.4,5.96c-1.09,2.54-2.11,4.38-3.05,5.52-.85.85-1.99,1.5-3.41,1.91-.99.29-2.3.44-3.9.44-1.23,0-2.06.1-2.49.27-.94.27-1.48.8-1.62,1.57,0,1.14.68,1.77,2.06,1.91l.03.02ZM319.84,127.15l10.02-26.46.24-.85.63-1.65c.39-1.14.9-1.77,1.57-1.91.31.05.77.73,1.33,2.06l.99,2.35,9.88,24.67.46,1.36.51,1.86c0,.51-.56.94-1.69,1.26h-22.03c-1.43,0-2.2-.34-2.35-.99l.44-1.7h0Z"/>
      <path class="st0" d="M24.34,233.7c1.85-2.31,4.22-4.12,7.05-5.4,1.26-.52,2.61-.91,4.03-1.17,1.44-.27,2.99-.41,4.75-.41,1.4,0,3.05.18,4.89.54,1.8.36,3.39,1.12,4.73,2.24.79.64,1.53,1.47,2.21,2.45.65,1.15,1.24,2.28,1.74,3.36.5,1.1,1.03,1.68,1.67,1.78.63,0,1.39-.31,1.39-1.8l-.2-3.36c0-1.64-.07-2.87-.2-3.64-.13-.83-.83-1.49-2.12-1.99-1.75-.72-3.88-1.29-6.33-1.69-1.66-.23-2.7-.35-3.48-.43-.84-.08-1.87-.12-3.06-.12-3.76,0-7.51.67-11.16,1.98-5.51,2-10.08,5.18-13.61,9.45-1.71,2.17-3.08,4.63-4.08,7.31s-1.51,5.47-1.51,8.29c0,3.67.82,7.21,2.43,10.52,1.47,2.98,3.78,5.78,6.87,8.32,2.65,2.17,5.71,3.78,9.11,4.77,1.65.5,3.35.87,5.03,1.1,1.68.25,3.47.37,5.34.37,3.04,0,6.03-.33,8.89-.97,3.11-.78,5.86-1.94,8.17-3.44.86-.54,1.36-1.17,1.48-1.9v-11.51l.12-2.33c0-.45.07-.84.2-1.13.14-.32.33-.59.55-.79.24-.22.59-.36,1.06-.43l2.73-.3c1.03,0,1.6-.38,1.69-1.15,0-.52-.26-1.15-1.51-1.15h-16.78c-.53,0-.98.07-1.31.2-.38.14-.61.44-.7.95,0,.46.25.84.75,1.12l.04.02h1.28c2.22,0,3.67.28,4.3.84.63.55.95,1.94.95,4.13v6.59l-.14,3.56c-.2,1.45-.64,2.45-1.3,2.99-.87.73-2.32,1.33-4.28,1.79-.15.01-.71.06-1.9.21-.93.12-1.84.17-2.77.17-3.58,0-6.8-.54-9.56-1.62-2.74-1.07-5.25-2.88-7.45-5.38-1.89-2.25-3.36-4.77-4.35-7.5-.45-1.31-.79-2.63-1.03-4.04-.22-1.28-.33-2.82-.33-4.56,0-2.76.49-5.71,1.46-8.76,1-3.1,2.43-5.82,4.26-8.09h-.01Z"/>
      <path class="st0" d="M211.05,225.35h-35.22c-1.16,0-1.48.7-1.54,1.29v.04c.06.41.35.78.83,1.06l.04.02h1.4c2.38,0,3.87.46,4.43,1.37.21.29.39.91.55,1.87v38.7c0,.61-.09,1.11-.28,1.54-.19.42-.45.75-.78.99s-.85.43-1.55.58c-.67.14-1.45.21-2.39.21-.71,0-1.18.06-1.4.17-.76.23-.87.69-.87.94,0,.63.27,1.39,1.56,1.39h0l4.91-.3h31.09c.49-.06.85-.27,1.04-.6l1.19-8.47.11-.52.08-.69.12-.73c0-.4-.16-.91-.96-1.03-.36,0-.75.36-1.3,1.2l-.61,1.59c-1.16,3.14-2.94,5.2-5.28,6.1-.9.33-2.14.6-3.78.81h-2.34l-2.31.15-4.21-.14c-1.83-.18-3.19-.72-4.04-1.6-.9-1.1-1.35-2.94-1.35-5.47v-13.81c0-1.21.23-1.97.66-2.24.1-.03.41-.12,1.11-.2.53-.06,1.19-.09,2.01-.09h4.53c1.02,0,1.87.06,2.61.17.86.13,1.62.28,2.36.45.75.17,1.36.75,1.85,1.75.28.61.55,1.67.84,3.2,0,.03,0,.1.18.59.03.07.06.17.09.3l.02.05c.22.39.54.6.94.6.49,0,1.07-.28,1.07-1.62-.05-1.31-.08-2.53-.1-3.71v-.19c-.03-1.21-.04-2.41-.04-3.57,0-.67.03-1.86.07-3.48.05-1.73.08-2.78.08-3.29,0-.43-.19-.95-1.07-.95-.35,0-.66.18-.93.53l-.3.93c-.16,1.16-.42,2.33-.79,3.49-.35,1.1-.96,1.73-1.79,1.87-1.15,0-2.84.05-4.74.15-2.13.11-3.77.16-4.88.16-2.09,0-2.82-.23-3.06-.42-.33-.29-.72-1.07-.72-3.16v-13.75c.14-.62.49-1.09,1.04-1.39l2.98-.39h7.44c.79,0,1.54.07,2.23.21.7.14,1.4.32,2.07.54,1.12.37,2.12.95,2.96,1.74.62.57,1.25,1.54,1.87,2.9l1.19,2.26c.08.27.24.61.49,1.08.27.36.57.57.97.67.25,0,.6-.14.8-.83l.08-1.02v-8.67c-.09-.76-.51-1.19-1.27-1.29v-.04Z"/>
      <path class="st0" d="M386.78,225.35h-13.89c-1.33,0-1.61.8-1.61,1.48.03.43.32.74.86.93h1.32c2.44,0,3.98.47,4.58,1.36.25.47.42,1.13.49,1.97v33.15l-27.8-36c-.54-.84-.99-1.43-1.4-1.83-.56-.45-1.2-.79-1.96-1.04h-9.96c-1.41,0-2.13.48-2.13,1.48.06.42.35.73.86.91h1.36c2.44.01,3.98.47,4.58,1.35.23.49.38,1.16.46,1.98v38.78c0,.6-.09,1.11-.28,1.54-.2.44-.44.76-.76.99-.32.24-.8.43-1.48.58-.66.14-1.47.21-2.47.21h-1.3c-.55.09-.88.39-.97.92,0,.61.28,1.35,1.61,1.35h13.93c1.16,0,1.48-.7,1.55-1.32-.03-.44-.32-.75-.86-.94h-1.33c-2.38,0-3.92-.47-4.53-1.33-.22-.51-.37-1.19-.45-1.99v-38.49l33.02,42.92c.08.13.22.35.4.62.2.33.36.52.44.61.45.53.9.81,1.36.8h0c.36-.05.57-.44.69-.73l.02-44.52c0-.6.09-1.11.27-1.54.19-.43.45-.75.79-.98.36-.25.86-.44,1.51-.58s1.44-.21,2.41-.21h1.38c.71-.12.85-.58.85-.95,0-.61-.27-1.36-1.55-1.47h0Z"/>
      <path class="st0" d="M379.05,299.05c-15.18.49-22.43-1.3-32.95-4.7-24.29-7.86-53.34-46.13-70.98-65.46-9.79-10.73-16.9-20.01-26.88-27.34-26.66-19.62-55.65-24.16-89.32-10-11.69,4.92-22.02,15.46-33.39,26.73-22.99,22.78-44.11,61.82-83.15,76.11-8.94,3.27-17.9,3.63-29.21,3.85-4.37,2.67-5.13,7.51-3.08,9.69,14.57,6.38,43.95-3.4,58.2-13.62,25.56-18.32,42.18-42.76,57.05-58.29,11.79-12.32,20.2-22.84,34.07-31.04,9.06-5.36,19.39-10,31.39-10.51,16.46-.71,34.41,5.03,44.94,11.71,4.67,2.96,8.53,5.39,12.38,9.23,12.88,12.83,26.39,29.52,40.38,45.37,5.03,5.7,9.81,11.59,14.54,16.33,12.08,12.11,24.89,20.9,37.21,25.89,14.2,5.76,27.49,8.25,37.56,7.24,4.56-.54,6.15-8.6,1.25-11.19h-.01Z"/>
      <path class="st0" d="M121.57,52.46c3.48,1.89,7.23,2.84,11.24,2.84,4.87,0,9.07-1.1,12.57-3.31,3.51-2.21,6.17-5.14,7.99-8.78,1.82-3.64,2.73-7.56,2.73-11.75s-1.04-8.27-3.11-11.69-4.85-6.07-8.34-7.96c-3.49-1.89-7.23-2.84-11.24-2.84-4.87,0-9.07,1.1-12.57,3.31-3.51,2.21-6.17,5.14-7.99,8.78-1.82,3.65-2.73,7.56-2.73,11.75s1.04,8.27,3.11,11.69c2.07,3.42,4.85,6.07,8.34,7.96ZM120.71,16.51c2.69-3.12,6.56-4.68,11.62-4.68,3.69,0,6.82,1.01,9.4,3.04,2.57,2.03,4.52,4.77,5.84,8.23,1.32,3.46,1.98,7.36,1.98,11.69,0,5.51-1.34,9.85-4.03,13.02-2.69,3.17-6.58,4.75-11.69,4.75-3.69,0-6.82-1.02-9.4-3.07-2.57-2.05-4.51-4.83-5.81-8.34s-1.95-7.42-1.95-11.75c0-5.47,1.34-9.76,4.03-12.88h.01Z"/>
      <path class="st0" d="M140.46,6.84c.96,0,1.77-.33,2.43-.99s.99-1.47.99-2.43-.33-1.76-.99-2.43c-.66-.66-1.47-.99-2.43-.99s-1.77.33-2.43.99-.99,1.47-.99,2.43.33,1.77.99,2.43,1.47.99,2.43.99Z"/>
      <path class="st0" d="M127.14,6.84c.96,0,1.77-.33,2.43-.99s.99-1.47.99-2.43-.33-1.76-.99-2.43c-.66-.66-1.47-.99-2.43-.99s-1.77.33-2.43.99-.99,1.47-.99,2.43.33,1.77.99,2.43,1.47.99,2.43.99Z"/>
      <path class="st0" d="M179.79,26.97c-2.71,3.8-6.18,8.6-10.42,14.38-2.14,2.87-3.58,4.83-4.3,5.88-.91,1.23-1.8,2.52-2.67,3.86s-1.3,2.18-1.3,2.49c0,.09.03.27.1.55.07.27.19.41.38.41h5.26l8.13-.07,9.02.07c4.83.09,8.7.14,11.62.14.32,0,.56-.09.72-.27s.33-.48.51-.89c.36-.77.88-2.53,1.54-5.26s.99-4.31.99-4.72c0-.59-.2-.89-.61-.89-.32,0-.61.16-.89.48-.27.32-.48.64-.61.96-.91,2.37-2.05,4.16-3.42,5.36-1.37,1.21-3.05,1.9-5.06,2.08-3.55.23-6.77.34-9.64.34s-5.53-.11-7.72-.34c-.23-.04-.41-.18-.55-.41s-.2-.48-.2-.75c0-.36.07-.64.2-.82,3.87-5.97,7.28-11.01,10.22-15.14,2.94-4.12,7.23-10.01,12.88-17.66l4.17-5.53c.14-.18.1-.43-.1-.75-.2-.32-.42-.48-.65-.48-5.06.14-10.32.2-15.79.2h-8.61c-1.05,0-2.15-.12-3.31-.38-1.16-.25-2.02-.49-2.56-.72-.27-.14-.66-.33-1.16-.58s-.82-.38-.96-.38c-.64,0-.98.39-1.03,1.16-.14,2.14-.75,4.83-1.84,8.06-.32.87-.48,1.48-.48,1.84,0,.5.2.75.61.75.46,0,.82-.21,1.09-.62s.55-.93.82-1.57c.55-1.55,1.48-2.74,2.8-3.59,1.32-.84,2.62-1.33,3.89-1.47,1.14-.09,3.46-.14,6.97-.14s6.7.05,9.98.14c.86.05,1.3.23,1.3.55,0,.09-.09.27-.27.55-3.33,4.97-6.34,9.35-9.05,13.15v.03Z"/>
      <path class="st0" d="M204.9,54.68c.55,0,1.98-.07,4.31-.2,1.09-.14,2.28-.2,3.55-.2,3.1,0,6.22.07,9.36.2,7.11.14,11.11.2,12.03.2.18,0,.33-.06.44-.17.11-.11.22-.28.31-.51s.16-.39.2-.48c.41-.91.86-2.31,1.37-4.2.5-1.89.75-3.13.75-3.72,0-.64-.3-.96-.89-.96-.32,0-.64.3-.96.89-.77,1.46-1.45,2.59-2.02,3.38-.57.8-1.2,1.42-1.88,1.88-.68.41-1.52.71-2.49.89-.98.18-2.22.27-3.72.27h-5.06c-1.59,0-2.74-.34-3.45-1.02s-1.06-1.87-1.06-3.55v-13.12c0-.73.17-1.21.51-1.44s.95-.34,1.81-.34h6.35c.86,0,1.54.24,2.02.72.48.48.85,1.26,1.13,2.36.36,1.46.89,2.19,1.57,2.19.41,0,.61-.39.61-1.16l-.07-1.64-.07-3.62.14-3.01.07-1.78c0-.32-.1-.58-.31-.79s-.4-.31-.58-.31c-.55,0-.96.5-1.23,1.5-.36,1.32-.8,2.21-1.3,2.67-.5.46-1.39.68-2.66.68h-6.77c-.32,0-.6-.15-.85-.44-.25-.3-.38-.65-.38-1.06v-14.49c0-.59.3-1.1.89-1.54.59-.43,1.12-.65,1.57-.65h8.95c1.96,0,3.48.62,4.58,1.84.36.37.68,1.03.96,1.98.27.96.46,1.55.55,1.78.09.27.18.46.27.55s.25.14.48.14c.64,0,.96-.34.96-1.02,0-1.05-.15-2.39-.44-4.03-.3-1.64-.49-2.64-.58-3.01-.05-.41-.46-.62-1.23-.62l-5.81.14-9.36.07-5.81-.07c-2.46-.09-4.56-.14-6.29-.14-1.32,0-1.98.25-1.98.75,0,.64.75,1.09,2.26,1.37,1.73.32,2.93.83,3.59,1.54.66.71.99,1.86.99,3.45v30.75c0,1.6-.4,2.77-1.2,3.52s-2.08,1.29-3.86,1.61c-.78.14-1.34.3-1.71.48-.37.18-.55.43-.55.75,0,.5.66.75,1.98.75h0Z"/>
      <path class="st0" d="M241.29,54.44c.34.16.81.24,1.4.24.64-.05,1.98-.11,4.03-.2,2.05-.09,3.78-.14,5.19-.14,2,0,5.33.04,9.98.14,4.1.14,8.59.2,13.46.2.55,0,.86-.39.96-1.16.14-1.27.33-2.49.58-3.66.25-1.16.67-2.84,1.26-5.02l.07-.34c0-.32-.07-.6-.21-.85s-.34-.38-.61-.38-.55.23-.82.68c-.27.46-.5.91-.68,1.37-.59,1.23-1.11,2.15-1.54,2.77-.43.61-1.1,1.31-2.02,2.08-.5.46-1.23.87-2.19,1.23-.96.37-2.01.55-3.14.55h-8.47c-2.14,0-3.55-.32-4.24-.96-.68-.64-1.03-1.71-1.03-3.21V15.59c0-1.18.48-2,1.43-2.46.96-.45,2.5-.89,4.65-1.3,1.5-.27,2.26-.73,2.26-1.37,0-.5-.66-.75-1.98-.75s-2.78.05-4.51.14l-4.1.07-3.42-.07c-1.46-.09-2.87-.14-4.24-.14s-1.98.25-1.98.75c0,.64.75,1.09,2.25,1.37,1.27.23,2.18.46,2.7.68.52.23.9.6,1.13,1.13.23.52.34,1.33.34,2.43v31.71c0,1.46-.46,2.55-1.37,3.28s-2.3,1.28-4.17,1.64c-1,.23-1.5.62-1.5,1.16,0,.23.17.42.51.58h.02Z"/>
    </g>
  </g>
</svg>